# xmcd
#
# Track frame offsets:
#	150
#	24969
#	42442
#	57210
#	76505
#	91972
#	111540
#	128427
#	147222
#	162517
#	179987
#	197792
#
# Disc length: 2874 seconds
#
# Revision: 0
# Processed by: cddbd v1.5.2PL0 Copyright (c) Steve Scherf et al.
# Submitted via: dBpowerAMP V4.0
#
DISCID=a00b380c
DTITLE=deja - deja
DYEAR=1900
DGENRE=
TTITLE0=song of light
TTITLE1=languida, suave distraccion
TTITLE2=free me heart
TTITLE3=blues del trercer mundo
TTITLE4=back to me boots
TTITLE5=sara
TTITLE6=soldado de la calle
TTITLE7=navegando
TTITLE8=una nuve mas
TTITLE9=baby richy
TTITLE10=no sabes nada
TTITLE11=para ti
EXTD=
EXTT0=
EXTT1=
EXTT2=
EXTT3=
EXTT4=
EXTT5=
EXTT6=
EXTT7=
EXTT8=
EXTT9=
EXTT10=
EXTT11=
PLAYORDER=
